<?xml version="1.0" encoding="utf-8"?>
<!-- Generator: Adobe Illustrator 20.0.0, SVG Export Plug-In . SVG Version: 6.00 Build 0)  -->
<svg version="1.1" id="Layer_1" xmlns="http://www.w3.org/2000/svg" xmlns:xlink="http://www.w3.org/1999/xlink" x="0px" y="0px"
	 viewBox="0 0 280 280" style="enable-background:new 0 0 280 280;" xml:space="preserve">
<style type="text/css">
	.st0{fill:#FFFFFF;}
	.st1{fill:#C4222F;}
	.st2{fill:#8D8E92;}
</style>
<g>
	<g id="XMLID_1_">
		<g>
			<path class="st0" d="M140,53c46.2,0,83.7,39,83.7,87.1s-37.5,87.1-83.7,87.1s-83.7-39-83.7-87.1S93.8,53,140,53z"/>
			<path class="st1" d="M140,12.3c70.7,0,128,57.3,128,128s-57.3,128-128,128S12,211,12,140.3S69.3,12.3,140,12.3z M223.7,140.1
				C223.7,92,186.2,53,140,53s-83.7,39-83.7,87.1s37.5,87.1,83.7,87.1S223.7,188.2,223.7,140.1z"/>
		</g>
		<g>
		</g>
	</g>
	<path class="st2" d="M158.3,87c-1.8,0.1-3.2,1.4-3.5,3.2l0,0c0,0-12,80.4-13.3,80.4l0,0c-1.2,0-13.7-60.4-13.7-60.4l0,0
		c-0.4-1.6-1.7-2.8-3.3-3l0,0c-1.6-0.1-3.1,0.8-3.7,2.3l0,0l-12.4,29.6h-7.1c-1.5-3.2-4.6-5.4-8.2-5.4l0,0c-5,0-9.1,4.2-9.1,9.4l0,0
		c0,5.2,4.1,9.4,9.1,9.4l0,0c3.8,0,7-2.4,8.4-5.8l0,0h9.3c1.5,0,2.8-0.9,3.4-2.3l0,0c0,0,8-21.3,8.9-21.3l0,0
		c0.9,0,15.3,67.6,15.3,67.6l0,0c0.4,1.7,1.9,3,3.6,3l0,0c1.9-0.1,3.4-1.4,3.7-3.2l0,0c0,0,12.4-81.5,13.5-81.5l0,0
		c1.1,0,13.5,53.5,13.5,53.5l0,0c0.4,1.6,1.8,2.8,3.4,2.9l0,0c1.6,0.1,3.1-0.9,3.7-2.5l0,0l9.8-27.2l6.6,10.4
		c0.6-4.9,0.4-9.8-0.3-14.7l0,0L192,125c-0.8-1.2-2.1-1.9-3.5-1.8l0,0c-1.4,0.2-2.6,1.1-3.1,2.5l0,0l-8.3,23.1l-14.9-59.1
		c-0.4-1.7-1.9-2.9-3.6-2.9l0,0C158.4,86.9,158.4,86.9,158.3,87L158.3,87z"/>
</g>
</svg>
